<svg width="30" height="32" viewBox="0 0 30 32" fill="none" xmlns="http://www.w3.org/2000/svg" xmlns:xlink="http://www.w3.org/1999/xlink">
<path d="M8.75,-0.466C7.936,-0.466 7.276,0.193 7.276,1.007C7.276,1.821 7.936,2.481 8.75,2.481L8.75,-0.466ZM8.75,11.534C7.936,11.534 7.276,12.193 7.276,13.007C7.276,13.821 7.936,14.481 8.75,14.481L8.75,11.534ZM8.75,2.481L13.25,2.481L13.25,-0.466L8.75,-0.466L8.75,2.481ZM13.25,11.534L8.75,11.534L8.75,14.481L13.25,14.481L13.25,11.534ZM17.776,7.007C17.776,9.507 15.75,11.534 13.25,11.534L13.25,14.481C17.378,14.481 20.724,11.135 20.724,7.007L17.776,7.007ZM20.724,7.007C20.724,2.88 17.378,-0.466 13.25,-0.466L13.25,2.481C15.75,2.481 17.776,4.508 17.776,7.007L20.724,7.007Z" transform="rotate(-180 14 7.007)" fill="#FFFFFF"/>
<path d="M0.814,13.49L-0.383,24.664L2.548,24.978L3.745,13.804L0.814,13.49ZM28.383,24.664L27.186,13.49L24.255,13.804L25.452,24.978L28.383,24.664ZM20.836,7.784L7.164,7.784L7.164,10.731L20.836,10.731L20.836,7.784ZM22.033,28.784L5.967,28.784L5.967,31.731L22.033,31.731L22.033,28.784ZM27.186,13.49C26.838,10.244 24.099,7.784 20.836,7.784L20.836,10.731C22.593,10.731 24.068,12.056 24.255,13.804L27.186,13.49ZM25.452,24.978C25.67,27.011 24.077,28.784 22.033,28.784L22.033,31.731C25.829,31.731 28.787,28.439 28.383,24.664L25.452,24.978ZM-0.383,24.664C-0.787,28.439 2.171,31.731 5.967,31.731L5.967,28.784C3.923,28.784 2.33,27.011 2.548,24.978L-0.383,24.664ZM3.745,13.804C3.932,12.056 5.407,10.731 7.164,10.731L7.164,7.784C3.901,7.784 1.162,10.244 0.814,13.49L3.745,13.804Z" transform="rotate(360 14 19.757)" fill="#FFFFFF"/>
</svg>
