<svg width="36" height="38" viewBox="0 0 36 38" fill="none" xmlns="http://www.w3.org/2000/svg" xmlns:xlink="http://www.w3.org/1999/xlink">
<path d="M11.822,-0.724C11.008,-0.724 10.349,-0.064 10.349,0.75C10.349,1.564 11.008,2.224 11.822,2.224L11.822,-0.724ZM11.822,13.943C11.008,13.943 10.349,14.603 10.349,15.417C10.349,16.231 11.008,16.89 11.822,16.89L11.822,13.943ZM11.822,2.224L17.322,2.224L17.322,-0.724L11.822,-0.724L11.822,2.224ZM17.322,13.943L11.822,13.943L11.822,16.89L17.322,16.89L17.322,13.943ZM23.182,8.083C23.182,11.319 20.558,13.943 17.322,13.943L17.322,16.89C22.186,16.89 26.129,12.947 26.129,8.083L23.182,8.083ZM26.129,8.083C26.129,3.219 22.186,-0.724 17.322,-0.724L17.322,2.224C20.558,2.224 23.182,4.847 23.182,8.083L26.129,8.083Z" transform="rotate(-180 18.239 8.083)" fill="#2A211F"/>
<path d="M32.459,15.223L30.994,15.38L32.459,15.223ZM2.554,15.066L0.856,30.907L3.787,31.221L5.484,15.38L2.554,15.066ZM35.622,30.907L33.925,15.066L30.994,15.38L32.691,31.221L35.622,30.907ZM27.575,9.36L8.904,9.36L8.904,12.307L27.575,12.307L27.575,9.36ZM29.272,35.026L7.206,35.026L7.206,37.974L29.272,37.974L29.272,35.026ZM33.925,15.066C33.577,11.821 30.839,9.36 27.575,9.36L27.575,12.307C29.332,12.307 30.807,13.632 30.994,15.38L33.925,15.066ZM32.691,31.221C32.909,33.254 31.316,35.026 29.272,35.026L29.272,37.974C33.068,37.974 36.027,34.682 35.622,30.907L32.691,31.221ZM0.856,30.907C0.452,34.682 3.41,37.974 7.206,37.974L7.206,35.026C5.162,35.026 3.569,33.254 3.787,31.221L0.856,30.907ZM5.484,15.38C5.672,13.632 7.146,12.307 8.904,12.307L8.904,9.36C5.64,9.36 2.901,11.821 2.554,15.066L5.484,15.38Z" transform="rotate(360 18.239 23.667)" fill="#2A211F"/>
</svg>
