<svg width="40" height="40" viewBox="0 0 40 40" fill="none" xmlns="http://www.w3.org/2000/svg" xmlns:xlink="http://www.w3.org/1999/xlink">
<path d="M20.001,3.141C29.313,3.141 36.861,10.689 36.861,20L39.808,20C39.808,9.061 30.94,0.193 20.001,0.193L20.001,3.141ZM36.861,20C36.861,29.311 29.313,36.86 20.001,36.86L20.001,39.807C30.94,39.807 39.808,30.939 39.808,20L36.861,20ZM20.001,36.86C10.69,36.86 3.142,29.311 3.142,20L0.194,20C0.194,30.939 9.062,39.807 20.001,39.807L20.001,36.86ZM3.142,20C3.142,10.689 10.69,3.141 20.001,3.141L20.001,0.193C9.062,0.193 0.194,9.061 0.194,20L3.142,20Z" fill="#2A211F"/>
<path d="M24.027,16.334C24.027,18.557 22.225,20.36 20.001,20.36L20.001,23.307C23.853,23.307 26.975,20.185 26.975,16.334L24.027,16.334ZM20.001,20.36C17.778,20.36 15.975,18.557 15.975,16.334L13.027,16.334C13.027,20.185 16.15,23.307 20.001,23.307L20.001,20.36ZM15.975,16.334C15.975,14.11 17.778,12.307 20.001,12.307L20.001,9.36C16.15,9.36 13.027,12.482 13.027,16.334L15.975,16.334ZM20.001,12.307C22.225,12.307 24.027,14.11 24.027,16.334L26.975,16.334C26.975,12.482 23.853,9.36 20.001,9.36L20.001,12.307Z" fill="#2A211F"/>
<path d="M7.527,34.668C7.527,35.482 8.187,36.141 9.001,36.141C9.815,36.141 10.475,35.482 10.475,34.668L7.527,34.668ZM29.527,34.668C29.527,35.482 30.187,36.141 31.001,36.141C31.815,36.141 32.475,35.482 32.475,34.668L29.527,34.668ZM10.475,34.668C10.475,33.289 11.313,31.86 13.04,30.708C14.757,29.564 17.214,28.808 20.001,28.808L20.001,25.861C16.713,25.861 13.67,26.746 11.405,28.256C9.151,29.759 7.527,31.997 7.527,34.668L10.475,34.668ZM20.001,28.808C22.788,28.808 25.245,29.564 26.962,30.708C28.689,31.86 29.527,33.289 29.527,34.668L32.475,34.668C32.475,31.997 30.851,29.759 28.597,28.256C26.332,26.746 23.289,25.861 20.001,25.861L20.001,28.808Z" fill="#2A211F"/>
</svg>
