<svg xmlns="http://www.w3.org/2000/svg" version="1.0" width="3025.000000pt" height="834.000000pt" viewBox="0 0 3025.000000 834.000000" preserveAspectRatio="xMidYMid meet">

<g transform="translate(0.000000,834.000000) scale(0.100000,-0.100000)" fill="#ffffff" stroke="none">
<path d="M12835 7019 c-310 -29 -648 -137 -900 -287 -165 -98 -360 -271 -494 -437 -331 -411 -574 -1061 -661 -1765 -17 -139 -24 -618 -11 -775 31 -371 104 -748 206 -1065 255 -790 723 -1271 1409 -1445 186 -47 332 -66 556 -72 854 -24 1474 317 1891 1042 260 453 391 982 418 1688 37 957 -167 1759 -592 2322 -78 104 -289 314 -394 393 -406 307 -913 449 -1428 401z m352 -854 c272 -52 498 -196 643 -410 191 -282 310 -762 335 -1350 7 -163 -8 -720 -25 -905 -34 -371 -137 -754 -257 -954 -204 -340 -551 -531 -933 -513 -372 18 -691 231 -855 571 -54 111 -75 175 -124 369 -208 820 -178 1640 86 2410 98 286 171 414 315 553 126 121 258 192 424 228 92 19 291 20 391 1z" fill="#ffffff"/>
<path d="M18960 7005 c-409 -56 -810 -223 -1099 -458 -486 -394 -801 -1042 -911 -1877 -42 -309 -39 -846 5 -1235 122 -1064 572 -1776 1321 -2085 293 -121 617 -182 964 -182 575 -1 1061 192 1440 571 311 311 513 703 599 1161 39 211 39 280 0 301 -15 8 -160 11 -479 12 -413 0 -461 -1 -484 -16 -38 -26 -56 -69 -67 -165 -17 -156 -123 -420 -233 -586 -161 -242 -425 -384 -746 -402 -300 -17 -594 99 -806 318 -130 134 -212 274 -283 483 -115 340 -155 660 -155 1245 0 505 24 763 99 1055 89 345 204 565 389 743 194 187 405 278 666 289 201 8 378 -37 560 -144 271 -159 436 -403 505 -748 35 -175 42 -193 79 -216 29 -18 54 -19 471 -18 242 1 451 4 465 8 14 4 31 19 39 33 13 23 13 41 -3 160 -21 158 -80 396 -131 527 -19 52 -65 151 -101 220 -286 554 -831 918 -1507 1006 -144 18 -462 18 -597 0z" fill="#ffffff"/>
<path d="M7252 6951 c-463 -7 -442 -3 -442 -67 0 -17 126 -485 281 -1040 371 -1338 694 -2503 994 -3592 135 -491 252 -909 259 -927 28 -66 22 -65 553 -64 343 0 488 4 513 12 28 10 41 23 62 67 24 49 770 2664 1380 4834 115 412 212 755 215 763 4 11 -78 13 -486 13 -542 0 -541 0 -579 -61 -12 -20 -97 -323 -202 -719 -293 -1106 -850 -3183 -859 -3205 -7 -18 -9 -18 -34 7 -15 15 -27 33 -27 41 0 8 -130 520 -289 1138 -159 618 -367 1428 -461 1799 -251 989 -236 941 -306 982 -41 24 -81 25 -572 19z" fill="#ffffff"/>
<path d="M15659 6949 c-17 -4 -41 -17 -53 -28 l-21 -22 -3 -2767 c-2 -1884 0 -2778 7 -2803 22 -76 -1 -72 494 -73 491 -1 492 -1 513 62 7 23 10 876 10 2800 -1 2626 -2 2769 -19 2795 -9 15 -28 30 -42 33 -34 8 -845 11 -886 3z" fill="#ffffff"/>
<path d="M21740 6950 c-100 -13 -115 -42 -115 -225 0 -71 1 -1317 3 -2768 l2 -2639 29 -29 29 -29 1577 0 1577 0 27 28 28 27 -2 370 c-1 204 -5 378 -9 388 -22 48 7 47 -1120 47 l-1055 0 -27 23 -26 23 -1 775 c0 563 3 780 11 796 24 45 33 45 986 43 495 -2 911 -2 924 -1 13 0 34 12 47 26 l25 24 0 365 0 365 -24 28 -24 28 -952 1 c-944 2 -952 2 -972 22 -21 20 -21 28 -20 704 0 376 1 693 1 705 1 12 11 31 23 43 22 20 29 20 1086 20 l1064 0 28 28 28 28 -1 360 c0 197 -3 369 -8 382 -5 12 -20 27 -34 32 -27 10 -3023 19 -3105 10z" fill="#ffffff"/>
<path d="M6026 6925 c-167 -69 -242 -252 -167 -410 49 -105 152 -168 310 -188 79 -9 97 -9 145 6 73 23 137 86 179 175 27 57 31 78 31 142 0 89 -23 145 -90 219 -56 62 -97 81 -124 56 -46 -42 -34 -103 36 -177 39 -42 44 -52 44 -94 0 -58 -33 -107 -83 -123 -37 -12 -78 -3 -93 21 -5 7 -7 89 -6 182 3 204 -2 216 -76 216 -26 0 -73 -11 -106 -25z m58 -178 c14 -10 17 -28 17 -100 0 -48 -3 -92 -6 -97 -10 -16 -73 -12 -100 6 -50 33 -57 131 -12 171 37 34 72 41 101 20z" fill="#ffffff"/>
<path d="M5752 6310 c-49 -46 -38 -104 27 -141 23 -12 44 -32 48 -43 4 -12 8 -84 8 -161 0 -133 1 -143 28 -197 30 -61 87 -112 139 -124 24 -5 48 3 114 37 l84 43 59 -41 c79 -56 101 -61 162 -33 l49 24 28 -21 c76 -56 123 -66 166 -32 64 51 91 165 84 358 -7 181 -41 266 -126 318 -26 16 -53 23 -90 23 -111 0 -145 -47 -168 -228 -8 -64 -14 -146 -14 -182 0 -76 -9 -90 -59 -90 -63 0 -75 23 -60 107 21 112 -21 246 -89 286 -38 22 -125 25 -202 7 -45 -11 -53 -10 -70 5 -11 10 -20 28 -20 39 0 32 -28 66 -54 66 -12 0 -32 -9 -44 -20z m865 -194 l28 -24 -3 -121 c-1 -66 -8 -138 -15 -158 -11 -35 -15 -38 -53 -41 -63 -5 -68 9 -66 151 1 67 4 139 8 159 9 60 53 75 101 34z m-529 -66 c51 -32 69 -109 37 -170 -27 -52 -129 -65 -169 -21 -10 11 -22 50 -28 90 -9 61 -8 74 6 96 14 21 24 25 69 25 34 0 63 -7 85 -20z" fill="#ffffff"/>
<path d="M5935 5497 c-91 -52 -134 -231 -85 -360 12 -32 36 -77 54 -100 34 -45 112 -105 122 -94 10 10 17 103 10 131 -3 14 -24 46 -46 71 -44 51 -50 86 -25 135 18 35 43 50 84 50 35 0 64 -34 59 -72 -5 -41 23 -172 47 -223 38 -79 101 -115 200 -115 67 0 110 28 144 95 38 73 36 150 -7 233 l-33 64 31 53 c37 64 38 94 4 126 -25 24 -27 24 -272 27 -241 2 -248 2 -287 -21z m376 -177 c91 -25 127 -136 60 -187 -40 -31 -119 -3 -145 52 -23 48 -35 110 -24 129 10 18 55 21 109 6z" fill="#ffffff"/>
<path d="M5619 4801 c-20 -16 -24 -29 -24 -74 0 -40 5 -61 19 -76 19 -21 25 -21 435 -21 229 0 421 4 427 8 50 33 43 162 -10 176 -11 3 -202 6 -422 6 -381 0 -403 -1 -425 -19z" fill="#ffffff"/>
<path d="M5620 4482 c-19 -15 -23 -29 -24 -81 -1 -51 3 -65 18 -77 29 -21 843 -21 872 0 27 20 27 125 0 155 -19 21 -27 21 -431 21 -384 0 -414 -1 -435 -18z" fill="#ffffff"/>
<path d="M5614 4156 c-15 -12 -19 -26 -18 -72 0 -75 25 -98 97 -91 26 2 53 9 59 15 17 17 18 114 2 140 -12 18 -23 22 -67 22 -30 0 -62 -6 -73 -14z" fill="#ffffff"/>
<path d="M5866 4157 c-12 -9 -20 -31 -24 -65 -4 -44 -1 -54 21 -76 l26 -26 286 0 286 0 24 25 c33 32 35 105 5 135 -19 19 -33 20 -313 20 -228 0 -297 -3 -311 -13z" fill="#ffffff"/>
<path d="M5850 3885 c-30 -78 -3 -103 162 -149 113 -32 244 -83 235 -92 -1 -2 -77 -26 -167 -54 -91 -28 -180 -57 -198 -65 -46 -21 -56 -54 -40 -129 12 -55 16 -61 38 -59 20 1 384 124 558 189 53 20 77 60 69 117 -3 22 -12 46 -19 53 -13 13 -543 199 -600 211 -23 4 -29 1 -38 -22z" fill="#ffffff"/>
<path d="M6059 2984 c-26 -7 -69 -29 -95 -46 -160 -107 -179 -330 -41 -469 161 -162 457 -130 560 60 68 124 44 292 -57 399 -39 42 -68 54 -101 42 -61 -23 -54 -85 18 -168 51 -60 61 -88 48 -134 -22 -72 -105 -118 -162 -88 -18 10 -19 23 -19 195 l0 184 -26 20 c-31 24 -60 25 -125 5z m39 -291 c3 -102 2 -103 -22 -109 -103 -25 -169 118 -89 192 21 20 36 24 67 22 l41 -3 3 -102z" fill="#ffffff"/>
<path d="M6050 2270 c-127 -8 -171 -32 -205 -113 -22 -53 -19 -111 11 -178 15 -32 24 -65 21 -72 -7 -19 -67 -27 -152 -21 -81 6 -114 -6 -128 -49 -5 -15 -6 -43 -3 -62 13 -68 -7 -65 461 -65 l425 0 16 25 c12 18 15 38 11 71 -8 78 -9 78 -251 84 -219 5 -228 7 -263 49 -15 18 -17 85 -3 111 18 33 66 40 276 40 219 0 227 2 240 56 9 34 -2 94 -20 112 -16 16 -264 23 -436 12z" fill="#ffffff"/>
<path d="M6403 1595 c-11 -8 -26 -35 -32 -60 -6 -26 -22 -57 -35 -70 -22 -22 -29 -23 -167 -23 -170 1 -179 5 -179 79 0 63 -25 82 -90 71 -38 -6 -45 -11 -48 -32 -1 -14 -7 -42 -12 -62 -13 -45 -49 -60 -136 -56 -33 1 -65 -1 -72 -6 -17 -10 -15 -97 3 -123 12 -17 30 -23 83 -28 98 -11 125 -29 137 -92 5 -27 11 -33 39 -39 36 -6 76 9 76 29 0 7 11 26 24 42 l24 30 189 5 c169 5 192 8 229 27 51 27 80 82 90 169 8 77 -8 131 -43 145 -34 13 -55 11 -80 -6z" fill="#ffffff"/>
</g>
</svg>