<svg xmlns="http://www.w3.org/2000/svg" version="1.0" width="1280.000000pt" height="395.000000pt" viewBox="0 0 1280.000000 395.000000" preserveAspectRatio="xMidYMid meet">

<g transform="translate(0.000000,395.000000) scale(0.100000,-0.100000)" fill="#ffffff" stroke="none">
<path d="M50 3546 l0 -366 25 0 25 0 0 184 c0 101 3 204 6 230 l7 46 643 0 644 0 0 -1739 0 -1739 -57 -6 c-32 -3 -111 -8 -175 -12 l-118 -6 0 -42 0 -41 645 0 645 0 0 36 0 36 -77 7 c-43 3 -126 9 -184 12 l-107 7 -6 36 c-3 20 -6 804 -6 1744 l0 1707 634 0 633 0 7 -132 c3 -73 9 -184 12 -245 l7 -113 30 0 c26 0 29 3 23 23 -3 12 -6 180 -6 372 l0 350 -1542 0 c-849 0 -1580 4 -1625 8 l-83 8 0 -365z" fill="#ffffff"/>
<path d="M3477 3904 c-4 -4 -7 -24 -7 -45 0 -35 2 -38 33 -43 31 -5 289 -26 315 -26 19 0 18 -3618 -2 -3626 -7 -3 -87 -10 -177 -17 l-164 -12 0 -45 0 -45 190 5 c287 8 719 6 913 -3 l172 -9 0 46 c0 55 6 52 -170 61 -69 3 -142 8 -162 12 l-38 6 0 1807 0 1808 33 5 c17 3 101 11 185 18 l152 13 0 48 c0 47 -1 49 -22 42 -31 -10 -1097 -10 -1178 -1 -36 5 -69 5 -73 1z" fill="#ffffff"/>
<path d="M5886 3898 c-2 -7 -21 -143 -40 -303 -20 -159 -66 -454 -102 -655 -149 -831 -236 -1305 -439 -2370 -41 -217 -75 -398 -75 -401 0 -8 -184 -29 -250 -29 -72 0 -80 -5 -80 -56 l0 -45 203 8 c253 10 323 10 570 0 l197 -8 0 44 0 44 -77 6 c-43 4 -116 10 -161 13 -49 4 -86 12 -88 18 -5 13 60 415 146 911 53 303 285 1487 298 1518 5 14 161 -347 547 -1267 l540 -1286 96 0 97 0 52 128 c29 70 149 354 267 632 118 278 336 793 485 1145 149 352 274 644 278 648 4 5 10 -2 13 -15 10 -40 203 -1039 271 -1403 99 -532 167 -1002 145 -1016 -6 -3 -56 -9 -112 -13 -56 -3 -132 -9 -169 -12 l-68 -7 0 -44 0 -45 218 9 c274 10 452 10 820 -1 l292 -8 0 46 c0 30 -4 46 -12 46 -60 2 -330 29 -335 34 -10 10 -218 1062 -368 1861 -154 819 -192 1045 -273 1620 l-37 260 -106 3 c-95 2 -107 1 -114 -15 -3 -10 -58 -166 -122 -348 -246 -706 -508 -1379 -821 -2106 -163 -378 -244 -559 -251 -559 -4 0 -72 154 -150 343 -734 1752 -751 1794 -971 2427 -43 124 -82 233 -85 243 -6 15 -22 17 -116 17 -79 0 -111 -3 -113 -12z" fill="#ffffff"/>
<path d="M9862 3855 l3 -40 165 -17 c91 -9 173 -17 183 -17 16 -1 17 -94 17 -1810 0 -1086 -4 -1812 -9 -1815 -5 -4 -88 -12 -185 -18 l-176 -12 0 -44 0 -43 323 8 c177 4 372 8 432 7 61 0 562 -6 1114 -13 553 -6 1008 -8 1012 -4 4 5 9 180 12 391 l4 382 -28 0 c-28 0 -29 -2 -29 -47 0 -69 -38 -465 -45 -472 -10 -10 -1106 -14 -1502 -6 l-363 7 0 778 0 777 122 6 c66 4 415 7 774 7 l652 0 6 -27 c3 -16 12 -80 21 -143 26 -193 22 -180 55 -180 l30 0 0 470 c0 441 -1 470 -17 470 -32 0 -40 -14 -48 -80 -3 -36 -14 -105 -24 -155 l-16 -90 -50 -8 c-28 -4 -377 -10 -777 -13 l-728 -7 0 768 0 767 914 -4 c503 -2 917 -6 920 -9 4 -3 13 -96 22 -205 20 -267 19 -264 49 -264 l25 0 0 133 c0 74 -3 243 -7 376 l-6 242 -1424 -3 -1424 -3 3 -40z" fill="#ffffff"/>
</g>
</svg>