<svg xmlns="http://www.w3.org/2000/svg" version="1.0" width="3840.000000pt" height="2160.000000pt" viewBox="0 0 3840.000000 2160.000000" preserveAspectRatio="xMidYMid meet">

<g transform="translate(0.000000,2160.000000) scale(0.100000,-0.100000)" fill="#ffffff" stroke="none">
<path d="M22455 21244 c-809 -64 -1475 -319 -2042 -783 -812 -663 -1353 -1727 -1542 -3031 -165 -1132 -67 -2187 290 -3132 409 -1083 1056 -2037 2274 -3353 241 -261 315 -339 835 -880 752 -783 1009 -1061 1355 -1465 1167 -1361 1717 -2495 1825 -3755 13 -156 13 -636 0 -840 -70 -1070 -377 -1902 -895 -2420 -469 -470 -1099 -651 -1810 -520 -661 122 -1264 533 -1778 1212 -782 1034 -1323 2687 -1549 4735 l-33 298 -222 0 -223 0 0 -3415 0 -3415 179 0 179 0 33 98 c156 473 363 783 600 900 104 51 184 71 319 79 219 12 334 -44 800 -392 124 -92 282 -205 352 -251 454 -300 871 -458 1393 -530 185 -26 699 -26 905 -1 777 96 1428 357 1995 800 1109 866 1779 2305 1905 4087 15 212 20 747 9 960 -91 1793 -700 3297 -1984 4895 -418 521 -805 942 -1849 2010 -648 664 -936 971 -1239 1324 -849 989 -1317 1844 -1501 2739 -69 336 -81 461 -80 892 0 428 12 580 74 894 176 895 617 1428 1298 1565 214 44 454 49 700 15 673 -92 1246 -496 1715 -1209 121 -185 196 -319 318 -570 443 -909 768 -2173 983 -3825 24 -180 76 -628 76 -650 0 -6 89 -10 225 -10 l225 0 0 3415 0 3415 -180 0 -179 0 -11 -42 c-133 -528 -335 -815 -631 -894 -86 -23 -243 -23 -329 -1 -157 41 -284 120 -672 414 -259 196 -374 270 -583 373 -249 124 -511 202 -816 245 -110 16 -593 28 -714 19z" fill="#ffffff"/>
<path d="M750 20921 l0 -209 33 -11 c17 -5 140 -40 272 -76 293 -81 389 -124 493 -220 224 -207 340 -542 612 -1770 39 -176 105 -477 145 -670 41 -192 142 -672 225 -1065 188 -891 320 -1513 415 -1965 41 -192 115 -543 165 -780 117 -553 340 -1611 435 -2060 74 -352 143 -677 319 -1510 339 -1606 444 -2100 582 -2755 85 -404 179 -850 209 -990 57 -272 186 -881 335 -1585 107 -506 322 -1526 455 -2155 87 -410 142 -670 352 -1665 42 -198 110 -522 152 -720 l76 -360 489 -3 c270 -1 493 1 497 5 4 5 578 3062 1275 6796 698 3733 1271 6787 1274 6787 3 0 19 -71 37 -157 18 -87 89 -432 158 -768 140 -678 311 -1503 499 -2415 69 -333 181 -877 250 -1210 69 -333 182 -879 251 -1215 139 -674 240 -1161 470 -2275 85 -410 197 -954 250 -1210 53 -256 152 -735 220 -1065 68 -330 194 -940 280 -1355 86 -415 210 -1015 275 -1332 66 -318 120 -580 120 -583 0 -3 175 -5 390 -5 l390 0 5 22 c3 13 59 282 125 598 66 316 154 735 195 930 41 195 94 452 119 570 119 570 412 1969 451 2158 25 116 65 310 90 430 25 119 57 269 70 332 21 96 269 1284 431 2060 24 118 56 267 69 330 13 63 117 558 230 1100 113 542 226 1080 250 1195 87 414 137 654 340 1625 113 542 226 1081 251 1197 109 524 146 700 359 1718 124 594 236 1132 250 1195 13 63 126 599 249 1190 336 1605 367 1750 471 2155 131 514 240 809 380 1026 82 127 223 257 345 319 25 13 158 65 295 115 l250 92 3 211 2 212 -1900 0 -1900 0 0 -209 c0 -208 0 -209 23 -214 12 -3 164 -33 337 -67 365 -71 470 -97 591 -149 116 -50 179 -91 263 -171 160 -152 249 -357 293 -674 20 -146 22 -540 4 -751 -39 -459 -128 -1053 -241 -1610 -58 -284 -362 -1786 -510 -2520 -54 -269 -142 -704 -195 -965 -91 -448 -166 -820 -389 -1925 -52 -258 -138 -684 -191 -945 -53 -261 -141 -695 -195 -965 -54 -269 -142 -704 -195 -965 -53 -261 -140 -695 -195 -965 -54 -269 -142 -704 -195 -965 -53 -261 -103 -513 -112 -560 -12 -62 -18 -79 -25 -65 -6 17 -82 400 -278 1420 -16 83 -99 512 -185 955 -86 443 -239 1233 -340 1755 -101 523 -254 1312 -340 1755 -86 443 -169 873 -185 955 -16 83 -99 512 -185 955 -86 443 -239 1235 -341 1760 -102 525 -244 1257 -315 1625 -186 953 -196 1007 -229 1235 -41 290 -54 473 -47 690 9 269 44 425 135 605 38 74 63 107 142 185 77 78 112 105 186 143 123 63 213 87 594 157 179 33 335 62 348 65 22 5 22 6 22 215 l0 210 -2737 -2 -2738 -3 0 -207 0 -207 45 -11 c25 -5 119 -25 210 -44 91 -19 194 -44 228 -56 378 -125 533 -350 696 -1013 77 -312 116 -504 460 -2260 l305 -1558 -860 -4637 c-472 -2550 -862 -4652 -865 -4670 -4 -18 -8 -31 -10 -29 -2 2 -70 330 -150 728 -80 398 -224 1116 -320 1594 -96 479 -253 1259 -349 1735 -96 476 -251 1248 -345 1715 -94 468 -249 1239 -345 1715 -96 476 -318 1583 -495 2460 -435 2162 -426 2116 -454 2281 -109 637 -112 1048 -9 1361 77 234 221 403 438 511 90 44 203 76 438 123 128 25 242 48 255 51 22 5 22 6 22 214 l0 209 -2650 0 -2650 0 0 -209z" fill="#ffffff"/>
<path d="M31762 20923 l3 -208 438 -106 c506 -123 599 -151 736 -220 268 -134 397 -318 468 -669 16 -80 17 -561 19 -7965 1 -4334 -2 -7959 -7 -8055 -56 -1214 -268 -1922 -696 -2331 -183 -174 -413 -288 -678 -335 -137 -24 -433 -24 -562 -1 -352 65 -674 228 -930 471 -200 189 -328 382 -405 609 -61 181 -49 402 31 572 94 199 226 321 666 615 291 195 425 299 560 435 235 235 372 486 435 793 47 233 51 575 10 785 -111 568 -497 949 -1094 1079 -137 30 -465 33 -596 5 -438 -94 -813 -324 -1093 -671 -263 -328 -414 -687 -488 -1166 -20 -126 -23 -184 -23 -445 0 -320 11 -461 59 -740 204 -1182 895 -2163 1865 -2650 492 -247 1018 -365 1624 -365 1108 0 2057 352 2748 1019 211 203 393 429 561 696 105 167 272 498 346 685 238 600 375 1287 410 2045 12 242 20 4424 22 10445 1 2269 5 4185 10 4259 33 503 168 753 494 912 100 49 176 72 720 221 l230 64 3 212 2 212 -2945 0 -2945 0 2 -207z" fill="#ffffff"/>
</g>
</svg>