<svg xmlns="http://www.w3.org/2000/svg" version="1.0" width="863.000000pt" height="299.000000pt" viewBox="0 0 863.000000 299.000000" preserveAspectRatio="xMidYMid meet">

<g transform="translate(0.000000,299.000000) scale(0.100000,-0.100000)" fill="#ffffff" stroke="none">
<path d="M1240 2960 c-624 -110 -1107 -597 -1215 -1224 -22 -128 -20 -356 4 -498 53 -309 188 -567 415 -793 183 -183 368 -298 594 -370 173 -55 265 -69 457 -68 145 0 189 4 299 27 394 82 720 302 947 639 107 159 186 355 225 557 24 127 25 386 0 520 -112 618 -602 1105 -1216 1209 -157 27 -361 27 -510 1z m30 -895 c0 -113 2 -205 4 -205 3 0 26 14 53 30 138 86 348 51 479 -80 222 -221 160 -586 -124 -722 -122 -58 -292 -50 -411 20 -59 35 -130 108 -163 168 -55 102 -58 131 -58 581 l0 413 110 0 110 0 0 -205z m-635 -139 c134 -36 234 -115 290 -229 49 -100 55 -147 55 -413 l0 -234 -109 0 -110 0 -3 50 -3 50 -49 -35 c-78 -55 -123 -68 -218 -63 -233 12 -398 196 -398 442 0 98 23 176 76 253 102 148 302 224 469 179z m1911 3 c152 -28 303 -166 339 -312 l7 -27 -114 0 -115 0 -31 39 c-84 104 -238 111 -336 15 -106 -105 -65 -300 76 -358 85 -36 208 -4 263 68 l27 36 114 0 c131 0 130 2 88 -86 -41 -86 -123 -168 -213 -211 -68 -33 -86 -38 -171 -41 -78 -3 -106 0 -158 17 -164 56 -272 182 -303 352 -32 179 62 373 224 460 100 53 193 68 303 48z" fill="#ffffff"/>
<path d="M1433 1706 c-157 -51 -211 -233 -105 -356 71 -83 175 -103 273 -52 125 65 158 234 66 338 -59 68 -154 96 -234 70z" fill="#ffffff"/>
<path d="M480 1711 c-95 -31 -151 -95 -166 -190 -20 -124 92 -251 221 -251 119 0 225 105 225 224 0 78 -51 161 -122 197 -44 23 -120 32 -158 20z" fill="#ffffff"/>
<path d="M8054 2269 c-211 -23 -344 -148 -352 -328 -5 -100 21 -171 89 -246 66 -71 146 -123 359 -231 200 -101 260 -150 280 -224 33 -124 -48 -243 -195 -285 -45 -13 -84 -16 -165 -13 -97 4 -114 8 -181 40 -87 41 -148 97 -184 168 -18 35 -31 50 -42 48 -9 -2 -16 -6 -16 -11 1 -4 13 -73 29 -152 25 -136 28 -145 50 -145 13 0 26 4 29 10 9 14 79 12 155 -5 170 -38 355 -26 478 30 254 117 322 426 133 615 -68 68 -147 117 -349 217 -196 96 -253 140 -272 211 -23 87 16 164 107 209 53 26 67 28 163 27 83 0 117 -5 161 -23 82 -32 141 -87 175 -166 45 -102 54 -89 54 80 0 123 -2 147 -16 152 -8 3 -20 1 -27 -6 -16 -16 -65 -14 -175 8 -123 24 -198 29 -288 20z" fill="#ffffff"/>
<path d="M3120 2230 c0 -17 7 -20 43 -20 46 0 111 -35 155 -82 l23 -25 -3 -544 c-2 -419 -6 -549 -16 -566 -17 -31 -58 -50 -120 -59 -42 -5 -52 -10 -52 -25 0 -18 13 -19 255 -19 243 0 255 1 255 19 0 16 -9 19 -70 23 -77 4 -114 24 -140 74 -22 42 -28 1017 -7 994 8 -8 191 -208 408 -445 564 -616 629 -685 650 -685 18 0 19 19 19 625 0 549 2 630 16 656 16 32 66 59 109 59 18 0 25 5 25 19 0 18 -11 19 -230 19 -216 1 -230 0 -230 -17 0 -16 10 -19 70 -23 82 -4 119 -26 138 -83 9 -28 12 -135 10 -431 l-3 -394 -434 474 -434 474 -219 0 c-210 1 -218 0 -218 -18z" fill="#ffffff"/>
<path d="M4750 2229 c0 -17 8 -19 59 -19 49 0 65 -4 88 -24 l28 -24 3 -573 c2 -422 0 -581 -9 -602 -16 -37 -57 -57 -119 -57 -43 0 -50 -3 -50 -20 0 -20 7 -20 523 -20 l523 0 43 133 c24 72 46 138 48 145 3 7 -3 12 -16 12 -13 0 -29 -15 -47 -45 -34 -60 -95 -110 -163 -137 -48 -18 -81 -22 -222 -26 -184 -4 -225 5 -248 54 -7 17 -11 112 -11 286 l0 260 158 -4 c138 -3 163 -6 204 -27 50 -24 84 -67 94 -120 5 -21 12 -31 25 -31 18 0 19 11 19 205 0 189 -1 205 -17 205 -12 0 -27 -19 -43 -53 -15 -31 -39 -61 -59 -74 -32 -22 -44 -23 -207 -23 l-174 0 0 260 0 260 188 0 c139 0 202 -4 239 -15 69 -21 108 -66 125 -145 9 -47 16 -60 30 -60 21 0 22 21 12 193 l-7 106 -508 -1 c-493 0 -509 -1 -509 -19z" fill="#ffffff"/>
<path d="M5910 2236 c0 -8 16 -23 35 -35 19 -11 44 -35 55 -53 11 -18 124 -313 252 -655 l233 -623 31 0 c35 0 23 -27 225 512 40 108 75 195 78 192 3 -2 62 -161 131 -352 l127 -347 34 -3 34 -3 47 138 c26 76 122 359 213 628 91 270 176 504 188 522 11 17 34 39 49 48 15 9 28 22 28 30 0 11 -34 13 -176 13 -157 0 -175 -2 -172 -16 2 -11 15 -18 38 -20 67 -5 81 -12 96 -48 12 -28 13 -47 4 -91 -14 -77 -273 -854 -281 -845 -13 13 -319 872 -325 911 -8 53 18 71 103 71 56 0 63 2 63 19 0 19 -10 20 -286 19 -259 0 -285 -1 -282 -16 2 -11 18 -19 48 -24 62 -11 90 -34 127 -109 34 -69 143 -368 143 -391 0 -15 -154 -439 -169 -465 -8 -15 -327 832 -337 897 -7 42 8 59 59 69 19 4 33 14 35 24 3 16 -15 17 -222 17 -187 0 -226 -2 -226 -14z" fill="#ffffff"/>
</g>
</svg>