<svg xmlns="http://www.w3.org/2000/svg" version="1.0" width="1309.000000pt" height="512.000000pt" viewBox="0 0 1309.000000 512.000000" preserveAspectRatio="xMidYMid meet">

<g transform="translate(0.000000,512.000000) scale(0.100000,-0.100000)" fill="#ffffff" stroke="none">
<path d="M6860 3990 c-228 -44 -416 -79 -417 -80 -2 0 -3 -11 -3 -24 0 -31 16 -43 74 -56 99 -22 157 -75 187 -170 33 -103 40 -382 37 -1515 l-3 -1020 140 -27 c169 -33 348 -55 510 -64 745 -40 1225 421 1225 1178 0 170 -13 268 -51 383 -80 240 -230 431 -418 528 -214 112 -480 109 -745 -8 -31 -14 -61 -25 -66 -25 -6 0 -10 180 -10 490 l0 490 -22 -1 c-13 0 -210 -36 -438 -79z m812 -1052 c120 -64 210 -203 265 -408 27 -102 28 -111 28 -370 0 -237 -3 -276 -23 -366 -68 -312 -195 -527 -345 -582 -73 -28 -217 -31 -237 -6 -18 21 -37 1243 -24 1534 l9 204 40 12 c22 7 82 13 134 13 86 1 98 -1 153 -31z" fill="#ffffff"/>
<path d="M662 3968 l3 -53 87 -12 c100 -14 140 -29 186 -68 75 -63 112 -174 134 -401 18 -186 17 -1531 -1 -1747 -18 -219 -49 -325 -115 -395 -45 -48 -78 -64 -191 -87 l-100 -20 -3 -48 -3 -47 755 0 756 0 0 48 0 47 -77 13 c-139 22 -193 42 -239 87 -97 98 -121 259 -139 936 -6 219 -5 247 9 252 9 4 102 2 208 -3 176 -9 197 -12 245 -36 88 -43 162 -156 198 -305 l17 -69 54 0 54 0 -2 488 -3 487 -52 3 -51 3 -11 -49 c-26 -124 -82 -234 -147 -291 -55 -49 -88 -59 -229 -71 -188 -15 -284 -13 -291 5 -8 19 16 1097 25 1150 l6 40 315 -4 c300 -3 318 -4 377 -26 124 -47 223 -128 305 -248 45 -67 126 -233 152 -314 20 -59 26 -62 98 -37 l46 15 -4 222 c-3 122 -7 304 -10 405 l-6 182 -1180 0 -1179 0 3 -52z" fill="#ffffff"/>
<path d="M6210 3225 c-177 -49 -299 -158 -450 -403 -24 -38 -35 -50 -41 -40 -5 7 -6 112 -2 232 l6 219 -24 -5 c-13 -3 -208 -42 -434 -88 -225 -45 -416 -87 -422 -92 -19 -15 -16 -56 5 -62 9 -2 44 -10 77 -16 112 -22 153 -65 183 -192 15 -65 17 -142 17 -678 0 -656 -4 -714 -53 -803 -33 -62 -54 -75 -147 -98 -41 -9 -79 -20 -85 -24 -5 -3 -10 -24 -10 -46 l0 -39 623 2 622 3 3 42 c4 48 5 48 -108 57 -186 17 -227 70 -250 326 -5 63 -10 336 -10 606 l0 491 23 21 c35 33 131 73 201 83 109 15 266 -15 377 -72 l38 -19 49 128 c106 273 154 411 149 425 -16 43 -234 70 -337 42z" fill="#ffffff"/>
<path d="M3585 3215 c-394 -74 -679 -343 -783 -740 -93 -354 -31 -790 149 -1051 119 -174 296 -297 509 -356 77 -21 106 -23 300 -23 233 0 261 4 422 66 312 121 542 427 603 802 19 118 19 356 0 474 -69 424 -321 719 -698 814 -110 28 -385 35 -502 14z m249 -137 c62 -18 164 -124 209 -218 96 -200 136 -524 117 -935 -17 -355 -67 -538 -178 -658 -59 -63 -109 -86 -186 -87 -141 0 -246 111 -320 335 -64 197 -80 349 -73 718 5 322 16 413 70 576 72 222 199 316 361 269z" fill="#ffffff"/>
<path d="M9626 3215 c-212 -44 -354 -121 -506 -274 -141 -142 -222 -293 -276 -518 -24 -100 -25 -116 -22 -332 4 -212 6 -232 32 -316 15 -49 45 -127 66 -172 134 -286 369 -474 682 -545 141 -32 358 -29 492 6 164 43 325 131 452 248 62 58 88 102 74 128 -15 29 -32 26 -127 -26 -103 -56 -151 -71 -269 -85 -249 -27 -496 68 -634 246 -102 132 -165 340 -172 570 l-3 90 628 3 627 2 0 43 c0 76 -38 300 -65 381 -31 96 -85 204 -131 268 -92 124 -248 232 -399 273 -84 24 -355 29 -449 10z m217 -139 c113 -48 182 -233 194 -517 l6 -146 -213 -6 c-289 -9 -400 -9 -400 2 0 5 9 62 20 128 54 315 145 491 279 539 47 17 74 17 114 0z" fill="#ffffff"/>
<path d="M11462 3220 c-72 -13 -218 -69 -288 -111 -86 -50 -192 -161 -236 -244 -51 -99 -70 -180 -71 -305 0 -168 39 -272 144 -384 91 -98 170 -143 419 -241 134 -53 261 -120 312 -165 24 -21 57 -62 73 -91 25 -47 29 -64 29 -134 0 -70 -5 -88 -32 -142 -56 -110 -125 -162 -244 -184 -48 -9 -83 -9 -134 -1 -208 31 -336 146 -472 424 -37 76 -72 138 -79 138 -7 0 -24 -5 -39 -12 -26 -12 -26 -13 -20 -87 3 -41 6 -170 6 -288 0 -264 -11 -247 176 -292 206 -49 319 -63 519 -63 202 -1 281 12 425 66 281 105 443 337 444 636 0 159 -41 275 -132 373 -81 86 -189 149 -447 262 -227 99 -354 186 -401 276 -22 44 -30 162 -14 228 60 252 393 295 598 77 69 -74 104 -133 162 -271 23 -55 46 -104 50 -109 5 -4 24 -3 44 4 l36 12 0 91 c0 51 -3 170 -7 266 l-6 173 -43 18 c-23 10 -98 33 -166 50 -116 30 -135 32 -338 35 -118 2 -239 0 -268 -5z" fill="#ffffff"/>
</g>
</svg>