<svg width="42" height="42" viewBox="0 0 42 42" fill="none" xmlns="http://www.w3.org/2000/svg" xmlns:xlink="http://www.w3.org/1999/xlink">
<path d="M20.532,0.463L25.47,13.667L39.554,14.283L28.521,23.059L32.288,36.643L20.532,28.863L8.777,36.643L12.544,23.059L1.511,14.283L15.595,13.667L20.532,0.463M20.532,7.309L17.841,14.507L17.285,15.994L15.7,16.063L8.023,16.398L14.036,21.182L15.278,22.17L14.854,23.699L12.801,31.104L19.209,26.863L20.532,25.987L21.856,26.863L28.264,31.104L26.211,23.699L25.786,22.17L27.028,21.182L33.042,16.398L25.365,16.063L23.78,15.994L23.224,14.507" fill-rule="evenodd" fill="#D59A3D" fill-opacity="0"/>
<path d="M12.447,27.912L10.525,33.826L20.433,27.912L24.425,29.539L24.425,14.605L20.433,4.107L16.441,14.605L5.646,15.935L13.778,22.441L12.447,27.912Z" fill="#D59A3D"/>
</svg>
