<svg width="76" height="50" viewBox="0 0 76 50" fill="none" xmlns="http://www.w3.org/2000/svg" xmlns:xlink="http://www.w3.org/1999/xlink">
<g opacity="0.07">
<path d="M69.993,0.604L5.993,0.604C5.201,0.589 4.413,0.734 3.679,1.03C2.945,1.327 2.277,1.768 1.717,2.328C1.157,2.888 0.715,3.556 0.419,4.29C0.123,5.025 -0.023,5.812 -0.007,6.604L-0.007,42.604C-0.003,44.194 0.631,45.717 1.755,46.841C2.879,47.965 4.403,48.599 5.993,48.604L69.993,48.604C70.783,48.618 71.571,48.473 72.305,48.177C73.039,47.88 73.707,47.439 74.267,46.879C74.827,46.319 75.269,45.651 75.565,44.917C75.861,44.182 76.007,43.396 75.993,42.604L75.993,6.604C75.987,5.014 75.353,3.49 74.229,2.366C73.105,1.242 71.581,0.608 69.993,0.604Z" fill="#000000"/>
</g>
<path d="M69.99,2.606C71.05,2.61 72.066,3.032 72.814,3.782C73.564,4.531 73.986,5.547 73.99,6.606L73.99,42.606C73.986,43.666 73.564,44.682 72.814,45.431C72.066,46.181 71.05,46.603 69.99,46.606L5.99,46.606C4.93,46.603 3.915,46.181 3.167,45.431C2.417,44.682 1.994,43.666 1.99,42.606L1.99,6.606C1.994,5.547 2.417,4.531 3.167,3.782C3.915,3.032 4.93,2.61 5.99,2.606L69.99,2.606Z" fill="#006FCF"/>
<path d="M17.932,21.142L19.48,24.894L16.39,24.894L17.932,21.142ZM50.082,21.298L44.128,21.298L44.128,22.952L49.99,22.952L49.99,25.43L44.14,25.43L44.14,27.274L50.094,27.274L50.094,28.752L54.248,24.262L50.094,19.582L50.082,21.298ZM21.956,16.618L29.946,16.618L31.72,20.488L33.364,16.606L54.104,16.606L56.26,18.986L58.49,16.606L68.016,16.606L60.978,24.31L67.944,31.966L58.276,31.966L56.12,29.586L53.87,31.966L20.051,31.966L19.062,29.586L16.802,29.586L15.802,31.966L7.99,31.966L14.562,16.606L21.422,16.606L21.956,16.618ZM39.282,18.774L34.804,18.774L31.804,25.846L28.554,18.774L24.11,18.774L24.11,28.394L19.99,18.774L16.005,18.774L11.24,29.806L14.35,29.806L15.338,27.426L20.538,27.426L21.526,29.806L26.966,29.806L26.966,21.928L30.46,29.806L32.84,29.806L36.32,21.948L36.32,29.806L39.236,29.806L39.284,18.766L39.282,18.774ZM57.962,24.31L63.024,18.774L59.38,18.774L56.18,22.226L53.082,18.774L41.294,18.774L41.294,29.806L52.914,29.806L56.142,26.33L59.238,29.806L62.99,29.806L57.966,24.306L57.962,24.31Z" fill="#FFFFFF"/>
</svg>
