<svg width="76" height="50" viewBox="0 0 76 50" fill="none" xmlns="http://www.w3.org/2000/svg" xmlns:xlink="http://www.w3.org/1999/xlink">
<g opacity="0.07">
<path d="M69.997,0.604L5.997,0.604C5.205,0.589 4.417,0.734 3.683,1.03C2.949,1.327 2.281,1.768 1.721,2.328C1.161,2.888 0.719,3.556 0.423,4.29C0.127,5.025 -0.019,5.812 -0.003,6.604L-0.003,42.604C0.001,44.194 0.635,45.717 1.759,46.841C2.883,47.965 4.407,48.599 5.997,48.604L69.997,48.604C70.787,48.618 71.575,48.473 72.309,48.177C73.043,47.88 73.711,47.439 74.271,46.879C74.831,46.319 75.273,45.651 75.569,44.917C75.865,44.182 76.011,43.396 75.997,42.604L75.997,6.604C75.991,5.014 75.357,3.49 74.233,2.366C73.109,1.242 71.585,0.608 69.997,0.604Z" fill="#000000"/>
</g>
<path d="M69.995,2.606C71.055,2.61 72.071,3.032 72.819,3.782C73.569,4.531 73.991,5.547 73.995,6.606L73.995,42.606C73.991,43.666 73.569,44.682 72.819,45.431C72.071,46.181 71.055,46.603 69.995,46.606L5.995,46.606C4.935,46.603 3.919,46.181 3.171,45.431C2.421,44.682 1.999,43.666 1.995,42.606L1.995,6.606C1.999,5.547 2.421,4.531 3.171,3.782C3.919,3.032 4.935,2.61 5.995,2.606L69.995,2.606Z" fill="#FFFFFF"/>
<path d="M22.995,10.606L29.995,10.606L29.995,33.606C29.995,34.933 29.469,36.204 28.531,37.142C27.593,38.08 26.321,38.606 24.995,38.606L17.995,38.606L17.995,15.606C17.995,14.28 18.521,13.009 19.459,12.071C20.397,11.133 21.669,10.606 22.995,10.606Z" clip-rule="evenodd" fill-rule="evenodd" fill="#006EBC"/>
<path d="M36.995,10.606L43.995,10.606L43.995,33.606C43.995,34.933 43.469,36.204 42.531,37.142C41.593,38.08 40.321,38.606 38.995,38.606L31.995,38.606L31.995,15.606C31.995,14.28 32.521,13.009 33.459,12.071C34.397,11.133 35.669,10.606 36.995,10.606Z" clip-rule="evenodd" fill-rule="evenodd" fill="#F00036"/>
<path d="M50.995,10.606L57.995,10.606L57.995,33.606C57.995,34.933 57.469,36.204 56.531,37.142C55.593,38.08 54.321,38.606 52.995,38.606L45.995,38.606L45.995,15.606C45.995,14.28 46.521,13.009 47.459,12.071C48.397,11.133 49.669,10.606 50.995,10.606Z" clip-rule="evenodd" fill-rule="evenodd" fill="#2AB419"/>
<path d="M21.509,29.605C20.533,29.678 19.553,29.54 18.637,29.199C17.721,28.858 16.889,28.323 16.199,27.631L17.759,26.279C17.895,28.545 24.849,28.759 24.849,25.899L24.849,19.605L28.449,19.605L28.449,25.899C28.449,27.355 27.301,28.543 25.303,29.163C24.059,29.459 22.785,29.608 21.509,29.605ZM37.741,29.605C36.393,29.631 35.057,29.382 33.811,28.873C32.965,28.512 32.257,27.89 31.789,27.099C31.321,26.307 31.119,25.388 31.211,24.473C31.149,23.528 31.403,22.589 31.935,21.805C32.467,21.021 33.245,20.437 34.147,20.145C35.423,19.694 36.777,19.51 38.127,19.602C39.479,19.695 40.795,20.064 41.999,20.685L41.999,22.629C41.181,21.996 40.217,21.581 39.197,21.42C38.177,21.259 37.131,21.358 36.161,21.709C35.683,22.022 35.295,22.453 35.035,22.961C34.773,23.468 34.649,24.035 34.673,24.605C34.637,25.191 34.755,25.777 35.017,26.303C35.277,26.829 35.671,27.278 36.161,27.605C37.129,27.958 38.173,28.062 39.193,27.907C40.213,27.751 41.177,27.342 41.999,26.717L41.999,28.737C40.673,29.377 39.209,29.675 37.741,29.605ZM55.099,24.431C55.453,24.23 55.749,23.938 55.953,23.584C56.159,23.231 56.265,22.829 56.263,22.421C56.285,22.077 56.233,21.731 56.113,21.408C55.993,21.084 55.807,20.79 55.567,20.543C55.239,20.225 54.851,19.977 54.425,19.816C53.999,19.655 53.545,19.583 53.091,19.605L45.999,19.605L45.999,29.605L53.091,29.605C54.039,29.658 54.973,29.362 55.721,28.775C56.003,28.543 56.225,28.249 56.373,27.916C56.521,27.583 56.589,27.219 56.573,26.855C56.591,26.351 56.461,25.852 56.199,25.421C55.937,24.99 55.555,24.646 55.099,24.431ZM51.287,23.869L48.431,23.869L48.431,20.981L51.431,20.981C51.623,20.985 51.813,21.028 51.989,21.106C52.165,21.185 52.323,21.298 52.455,21.439C52.587,21.58 52.689,21.746 52.757,21.927C52.823,22.108 52.853,22.301 52.843,22.494C52.835,22.686 52.787,22.875 52.705,23.049C52.621,23.223 52.503,23.379 52.359,23.507C52.215,23.635 52.047,23.733 51.865,23.796C51.681,23.858 51.489,23.883 51.297,23.869L51.287,23.869ZM51.863,28.183L48.431,28.183L48.431,25.157L51.863,25.157C52.065,25.149 52.269,25.183 52.459,25.256C52.649,25.329 52.821,25.439 52.969,25.58C53.115,25.721 53.231,25.891 53.311,26.078C53.391,26.265 53.431,26.466 53.431,26.67C53.431,26.873 53.391,27.075 53.311,27.262C53.231,27.449 53.115,27.618 52.969,27.76C52.821,27.901 52.649,28.011 52.459,28.084C52.269,28.157 52.065,28.19 51.863,28.183Z" fill="#FFFFFF"/>
</svg>
