<svg width="76" height="50" viewBox="0 0 76 50" fill="none" xmlns="http://www.w3.org/2000/svg" xmlns:xlink="http://www.w3.org/1999/xlink">
<g opacity="0.07">
<path d="M69.999,0.604L5.999,0.604C5.207,0.589 4.419,0.734 3.685,1.03C2.951,1.327 2.283,1.768 1.723,2.328C1.163,2.888 0.721,3.556 0.425,4.29C0.129,5.025 -0.017,5.812 -0.001,6.604L-0.001,42.604C0.003,44.194 0.637,45.717 1.761,46.841C2.885,47.965 4.409,48.599 5.999,48.604L69.999,48.604C70.789,48.618 71.577,48.473 72.311,48.177C73.045,47.88 73.713,47.439 74.273,46.879C74.833,46.319 75.275,45.651 75.571,44.917C75.867,44.182 76.013,43.396 75.999,42.604L75.999,6.604C75.993,5.014 75.359,3.49 74.235,2.366C73.111,1.242 71.587,0.608 69.999,0.604Z" fill="#000000"/>
</g>
<path d="M69.997,2.606C71.057,2.61 72.073,3.032 72.821,3.782C73.571,4.531 73.993,5.547 73.997,6.606L73.997,42.606C73.993,43.666 73.571,44.682 72.821,45.431C72.073,46.181 71.057,46.603 69.997,46.606L5.997,46.606C4.937,46.603 3.921,46.181 3.173,45.431C2.423,44.682 2.001,43.666 1.997,42.606L1.997,6.606C2.001,5.547 2.423,4.531 3.173,3.782C3.921,3.032 4.937,2.61 5.997,2.606L69.997,2.606Z" fill="#FFFFFF"/>
<path d="M73.995,34.505L73.995,42.605C73.991,43.665 73.569,44.68 72.819,45.43C72.069,46.179 71.055,46.602 69.995,46.605L46.451,46.605C62.243,42.975 70.537,37.405 73.995,34.505Z" fill="#EDA024"/>
<rect  x="17.997" y="22.603" width="40" height="4" fill="#494949"/>
<path d="M43.997,24.604C44.011,25.395 43.867,26.182 43.571,26.917C43.273,27.651 42.833,28.319 42.273,28.879C41.713,29.439 41.045,29.88 40.311,30.177C39.575,30.473 38.789,30.618 37.997,30.604C36.407,30.599 34.883,29.965 33.759,28.841C32.635,27.717 32.001,26.193 31.997,24.604C32.035,23.024 32.681,21.521 33.797,20.404C34.915,19.287 36.417,18.642 37.997,18.604C38.789,18.589 39.575,18.734 40.311,19.03C41.045,19.327 41.713,19.768 42.273,20.328C42.833,20.888 43.273,21.556 43.571,22.29C43.867,23.025 44.011,23.812 43.997,24.604Z" fill="#EDA024"/>
</svg>
