<svg width="22" height="30" viewBox="0 0 22 30" fill="none" xmlns="http://www.w3.org/2000/svg" xmlns:xlink="http://www.w3.org/1999/xlink">
<path d="M6.908,18.392C7.549,18.226 7.989,17.647 8.029,16.915C8.069,16.17 7.663,15.508 7.029,15.271L5.763,14.755C1.166,12.859 1.147,12.859 0.846,12.855C0.349,12.83 -0.111,13.09 -0.405,13.551C-0.406,13.552 -0.406,13.553 -0.407,13.554C-0.972,14.455 -1.085,16.886 -0.946,18.226C-0.882,18.812 -0.777,19.235 -0.628,19.517C-0.377,19.997 0.072,20.293 0.563,20.309C0.595,20.311 0.624,20.313 0.655,20.313C0.921,20.313 1.317,20.187 5.121,18.964C6.407,18.554 6.786,18.433 6.908,18.392Z" fill="#D59A3D"/>
<path d="M9.124,19.313C8.433,19.046 7.678,19.225 7.253,19.751C7.253,19.751 6.459,20.695 6.378,20.788C6.374,20.793 6.371,20.797 6.367,20.801C3.15,24.576 3.142,24.601 3.041,24.892C2.968,25.089 2.942,25.299 2.965,25.488C2.992,25.772 3.11,26.042 3.318,26.294C4.065,27.185 7.182,28.378 8.624,28.378C8.737,28.378 8.84,28.37 8.931,28.355C9.468,28.255 9.875,27.93 10.048,27.461C10.049,27.458 10.05,27.456 10.05,27.453C10.149,27.171 10.155,27.154 10.167,22.711C10.167,22.711 10.177,20.938 10.179,20.843C10.22,20.176 9.805,19.576 9.124,19.313Z" fill="#D59A3D"/>
<path d="M19.924,20.057C19.683,19.876 19.674,19.87 15.45,18.483C15.45,18.483 13.835,17.95 13.681,17.895C13.68,17.894 13.679,17.894 13.677,17.893C13.056,17.652 12.358,17.864 11.9,18.428C11.429,19.003 11.369,19.78 11.743,20.35L12.455,21.511C15.053,25.73 15.083,25.754 15.321,25.939C15.562,26.128 15.849,26.224 16.151,26.224C16.344,26.224 16.543,26.185 16.741,26.105C17.909,25.638 20.254,22.657 20.432,21.411C20.509,20.87 20.328,20.379 19.924,20.057Z" fill="#D59A3D"/>
<path d="M13.018,16.464C13.049,16.471 13.081,16.474 13.113,16.474C13.169,16.474 13.225,16.464 13.279,16.443C13.483,16.366 13.911,16.262 14.59,16.101C14.59,16.101 14.591,16.101 14.592,16.1C19.396,14.936 19.429,14.915 19.692,14.745C20.1,14.47 20.318,14.005 20.291,13.469C20.292,13.442 20.29,13.407 20.288,13.387C20.153,12.095 18.071,9.023 16.96,8.48C16.466,8.244 15.942,8.27 15.529,8.547C15.275,8.712 15.275,8.712 12.641,12.313C12.641,12.313 11.581,13.755 11.531,13.823C11.108,14.338 11.092,15.065 11.489,15.676C11.847,16.222 12.437,16.522 13.018,16.464Z" fill="#D59A3D"/>
<path d="M9.631,1.439C9.493,0.935 9.101,0.567 8.553,0.429C7.225,0.102 2.565,1.41 1.623,2.38C1.249,2.771 1.101,3.283 1.225,3.748C1.233,3.776 1.243,3.802 1.255,3.828C1.386,4.101 5.657,10.823 6.959,12.87C7.505,13.757 8.105,14.202 8.741,14.202C8.892,14.202 9.045,14.177 9.199,14.127C10.017,13.881 10.4,13.11 10.338,11.835C10.268,10.23 9.72,1.932 9.631,1.439Z" fill="#D59A3D"/>
</svg>
