<svg width="76" height="50" viewBox="0 0 76 50" fill="none" xmlns="http://www.w3.org/2000/svg" xmlns:xlink="http://www.w3.org/1999/xlink">
<g opacity="0.07">
<path d="M69.995,0.604L5.995,0.604C5.203,0.589 4.415,0.734 3.681,1.03C2.947,1.327 2.279,1.768 1.719,2.328C1.159,2.888 0.717,3.556 0.421,4.29C0.125,5.025 -0.021,5.812 -0.005,6.604L-0.005,42.604C-0.001,44.194 0.633,45.717 1.757,46.841C2.881,47.965 4.405,48.599 5.995,48.604L69.995,48.604C70.785,48.618 71.573,48.473 72.307,48.177C73.041,47.88 73.709,47.439 74.269,46.879C74.829,46.319 75.271,45.651 75.567,44.917C75.863,44.182 76.009,43.396 75.995,42.604L75.995,6.604C75.989,5.014 75.355,3.49 74.231,2.366C73.107,1.242 71.583,0.608 69.995,0.604Z" fill="#000000"/>
</g>
<path d="M69.993,2.606C71.053,2.61 72.069,3.032 72.817,3.782C73.567,4.531 73.989,5.547 73.993,6.606L73.993,42.606C73.989,43.666 73.567,44.682 72.817,45.431C72.069,46.181 71.053,46.603 69.993,46.606L5.993,46.606C4.933,46.603 3.917,46.181 3.169,45.431C2.419,44.682 1.997,43.666 1.993,42.606L1.993,6.606C1.997,5.547 2.419,4.531 3.169,3.782C3.917,3.032 4.933,2.61 5.993,2.606L69.993,2.606Z" fill="#FFFFFF"/>
<path d="M29.993,38.606C37.725,38.606 43.993,32.338 43.993,24.606C43.993,16.874 37.725,10.606 29.993,10.606C22.261,10.606 15.993,16.874 15.993,24.606C15.993,32.338 22.261,38.606 29.993,38.606Z" fill="#EB001B"/>
<path d="M45.993,38.606C53.725,38.606 59.993,32.338 59.993,24.606C59.993,16.874 53.725,10.606 45.993,10.606C38.261,10.606 31.993,16.874 31.993,24.606C31.993,32.338 38.261,38.606 45.993,38.606Z" fill="#F79E1B"/>
<path d="M43.993,24.604C44.009,22.357 43.469,20.141 42.421,18.152C41.375,16.163 39.855,14.464 37.993,13.204C36.165,14.497 34.669,16.203 33.625,18.185C32.583,20.166 32.023,22.365 31.993,24.604C32.001,26.847 32.551,29.055 33.595,31.04C34.641,33.024 36.149,34.728 37.993,36.004C39.855,34.745 41.375,33.045 42.421,31.056C43.469,29.068 44.009,26.851 43.993,24.604Z" fill="#FF5F00"/>
</svg>
