<svg width="76" height="50" viewBox="0 0 76 50" fill="none" xmlns="http://www.w3.org/2000/svg" xmlns:xlink="http://www.w3.org/1999/xlink">
<g opacity="0.07">
<path d="M69.991,0.604L5.991,0.604C5.199,0.589 4.411,0.734 3.677,1.03C2.943,1.327 2.275,1.768 1.715,2.328C1.155,2.888 0.713,3.556 0.417,4.29C0.121,5.025 -0.025,5.812 -0.009,6.604L-0.009,42.604C-0.005,44.194 0.629,45.717 1.753,46.841C2.877,47.965 4.401,48.599 5.991,48.604L69.991,48.604C70.783,48.618 71.569,48.473 72.303,48.177C73.039,47.88 73.705,47.439 74.265,46.879C74.825,46.319 75.267,45.651 75.563,44.917C75.859,44.182 76.005,43.396 75.991,42.604L75.991,6.604C75.985,5.014 75.351,3.49 74.227,2.366C73.103,1.242 71.581,0.608 69.991,0.604Z" fill="#000000"/>
</g>
<path d="M69.989,2.606C71.049,2.61 72.065,3.032 72.815,3.782C73.563,4.531 73.987,5.547 73.989,6.606L73.989,42.606C73.987,43.666 73.563,44.682 72.815,45.431C72.065,46.181 71.049,46.603 69.989,46.606L5.989,46.606C4.929,46.603 3.913,46.181 3.165,45.431C2.415,44.682 1.993,43.666 1.989,42.606L1.989,6.606C1.993,5.547 2.415,4.531 3.165,3.782C3.913,3.032 4.929,2.61 5.989,2.606L69.989,2.606Z" fill="#FFFFFF"/>
<path d="M47.789,17.202C48.025,16.399 48.037,15.546 47.827,14.736C47.615,13.926 47.187,13.188 46.589,12.602C45.755,11.852 44.771,11.286 43.703,10.941C42.635,10.597 41.505,10.481 40.389,10.602L32.189,10.602C31.907,10.611 31.635,10.714 31.417,10.895C31.199,11.077 31.049,11.325 30.989,11.602L27.989,31.802C27.989,32.202 28.189,32.602 28.589,32.602L33.989,32.602L34.789,25.802L38.389,21.402L47.789,17.202Z" fill="#003087"/>
<path d="M47.793,17.204L47.393,17.604C46.393,23.204 42.993,25.204 38.193,25.204L35.993,25.204C35.709,25.213 35.437,25.316 35.221,25.497C35.003,25.679 34.853,25.927 34.793,26.204L33.593,34.004L33.193,36.004C33.193,36.404 33.393,36.804 33.793,36.804L37.993,36.804C38.231,36.828 38.469,36.757 38.655,36.608C38.843,36.458 38.963,36.242 38.993,36.004L38.993,35.804L39.793,31.004L39.793,30.804C39.793,30.404 40.393,30.004 40.793,30.004L41.393,30.004C45.593,30.004 48.793,28.404 49.593,23.604C49.839,22.797 49.895,21.943 49.755,21.11C49.617,20.277 49.287,19.488 48.793,18.804C48.769,18.476 48.665,18.159 48.491,17.88C48.317,17.601 48.077,17.369 47.793,17.204Z" fill="#3086C8"/>
<path d="M46.593,16.805C46.515,16.729 46.421,16.671 46.317,16.637C46.213,16.602 46.103,16.591 45.993,16.605C45.885,16.618 45.775,16.607 45.671,16.573C45.567,16.538 45.473,16.481 45.393,16.405C44.675,16.23 43.933,16.162 43.193,16.205L37.193,16.205C36.993,16.205 36.793,16.205 36.793,16.405C36.393,16.605 36.193,16.805 36.193,17.205L34.793,26.005L34.793,26.205C34.825,25.914 34.967,25.648 35.191,25.461C35.415,25.274 35.703,25.182 35.993,25.205L38.593,25.205C43.593,25.205 46.793,23.205 47.793,17.605L47.793,17.205C47.521,16.954 47.165,16.812 46.793,16.805L46.593,16.805Z" fill="#012169"/>
</svg>
