<svg width="76" height="50" viewBox="0 0 76 50" fill="none" xmlns="http://www.w3.org/2000/svg" xmlns:xlink="http://www.w3.org/1999/xlink">
<g opacity="0.07">
<path d="M69.989,0.604L5.988,0.604C5.196,0.589 4.409,0.734 3.675,1.03C2.941,1.327 2.272,1.768 1.712,2.328C1.152,2.888 0.711,3.556 0.415,4.29C0.119,5.025 -0.028,5.812 -0.012,6.604L-0.012,42.604C-0.008,44.194 0.626,45.717 1.75,46.841C2.874,47.965 4.398,48.599 5.988,48.604L69.989,48.604C70.781,48.618 71.567,48.473 72.301,48.177C73.037,47.88 73.703,47.439 74.263,46.879C74.823,46.319 75.265,45.651 75.561,44.917C75.857,44.182 76.003,43.396 75.989,42.604L75.989,6.604C75.983,5.014 75.349,3.49 74.225,2.366C73.101,1.242 71.579,0.608 69.989,0.604Z" fill="#000000"/>
</g>
<path d="M69.987,2.606C71.047,2.61 72.063,3.032 72.813,3.782C73.561,4.531 73.985,5.547 73.987,6.606L73.987,42.606C73.985,43.666 73.561,44.682 72.813,45.431C72.063,46.181 71.047,46.603 69.987,46.606L5.987,46.606C4.927,46.603 3.911,46.181 3.163,45.431C2.413,44.682 1.991,43.666 1.987,42.606L1.987,6.606C1.991,5.547 2.413,4.531 3.163,3.782C3.911,3.032 4.927,2.61 5.987,2.606L69.987,2.606Z" fill="#FFFFFF"/>
<path d="M56.587,20.804L55.987,20.804C55.081,22.716 54.409,24.731 53.987,26.804L57.787,26.804C57.527,24.779 57.125,22.774 56.587,20.804ZM62.387,32.604L58.987,32.604C58.787,32.604 58.787,32.604 58.587,32.404L58.187,30.604L57.987,30.204L53.187,30.204C52.987,30.204 52.787,30.204 52.787,30.604L52.187,32.404C52.187,32.457 52.167,32.508 52.129,32.546C52.091,32.583 52.041,32.604 51.987,32.604L47.787,32.604L48.187,31.604L53.987,18.004C53.987,17.004 54.587,16.604 55.587,16.604L58.587,16.604C58.787,16.604 58.987,16.604 58.987,17.004L61.787,30.004C62.017,30.717 62.151,31.457 62.187,32.204C62.387,32.404 62.387,32.404 62.387,32.604ZM35.587,32.004L36.387,28.404C36.539,28.425 36.679,28.496 36.787,28.604C38.087,29.252 39.541,29.529 40.987,29.404C41.475,29.365 41.951,29.229 42.387,29.004C43.387,28.604 43.387,27.604 42.587,26.804C42.083,26.426 41.547,26.092 40.987,25.804C40.185,25.457 39.441,24.985 38.787,24.404C38.327,24.035 37.953,23.571 37.691,23.044C37.427,22.517 37.281,21.939 37.261,21.35C37.243,20.761 37.351,20.175 37.581,19.632C37.809,19.089 38.153,18.602 38.587,18.204C39.787,17.404 40.387,16.604 41.987,16.604C44.063,16.495 46.143,16.629 48.187,17.004L48.387,17.004C48.215,18.158 47.949,19.295 47.587,20.404C46.645,19.953 45.629,19.682 44.587,19.604C43.981,19.572 43.373,19.639 42.787,19.804C42.633,19.807 42.481,19.845 42.341,19.914C42.203,19.983 42.083,20.082 41.987,20.204C41.893,20.295 41.817,20.403 41.765,20.524C41.713,20.644 41.687,20.773 41.687,20.904C41.687,21.035 41.713,21.165 41.765,21.285C41.817,21.406 41.893,21.514 41.987,21.604L42.987,22.404C43.743,22.762 44.477,23.163 45.187,23.604C45.729,23.893 46.203,24.291 46.581,24.773C46.961,25.255 47.235,25.811 47.387,26.404C47.597,27.263 47.537,28.166 47.215,28.989C46.893,29.812 46.325,30.516 45.587,31.004C45.235,31.395 44.803,31.705 44.319,31.912C43.835,32.119 43.313,32.219 42.787,32.204C40.513,32.404 38.223,32.269 35.987,31.804C35.787,32.204 35.787,32.204 35.587,32.004ZM28.587,32.604C28.637,31.924 28.771,31.252 28.987,30.604C29.987,26.204 30.987,21.604 31.787,17.204C31.987,16.804 31.987,16.604 32.387,16.604L35.987,16.604C35.637,18.762 35.169,20.898 34.587,23.004C33.987,26.004 33.387,29.004 32.587,32.004C32.587,32.404 32.387,32.404 31.987,32.404L28.587,32.604ZM9.987,17.004C9.987,16.804 10.387,16.604 10.587,16.604L17.387,16.604C17.857,16.584 18.319,16.735 18.687,17.029C19.055,17.324 19.303,17.741 19.387,18.204L21.187,27.004C21.187,27.204 21.187,27.204 21.387,27.404C21.387,27.351 21.409,27.3 21.445,27.263C21.483,27.225 21.535,27.204 21.587,27.204L25.787,17.004C25.587,16.804 25.787,16.604 25.987,16.604L30.187,16.604C30.187,16.804 30.187,16.804 29.987,17.004L23.787,31.604C23.587,32.004 23.587,32.204 23.387,32.404C23.187,32.604 22.787,32.404 22.387,32.404L19.387,32.404C19.187,32.404 18.987,32.404 18.987,32.004L15.787,19.604C15.307,19.049 14.685,18.635 13.987,18.404C12.777,17.885 11.497,17.548 10.187,17.404L9.987,17.004Z" fill="#142688"/>
</svg>
