<svg width="110" height="114" viewBox="0 0 110 114" fill="none" xmlns="http://www.w3.org/2000/svg" xmlns:xlink="http://www.w3.org/1999/xlink">
<path d="M110,56.603C110,87.531 85.329,112.603 54.896,112.603C24.463,112.603 -0.208,87.531 -0.208,56.603C-0.208,25.675 24.463,0.603 54.896,0.603C85.329,0.603 110,25.675 110,56.603Z" transform="rotate(360 54.896 56.603)" fill="#D59A3D"/>
<path d="M41.807,74.336L43.02,72.746L42.021,71.983L40.9,72.553L41.807,74.336ZM34.537,78.03L35.443,79.813L34.537,78.03ZM54.896,36.436C65.807,36.436 74.708,45.434 74.708,56.602L78.708,56.602C78.708,43.286 68.077,32.436 54.896,32.436L54.896,36.436ZM74.708,56.602C74.708,67.771 65.807,76.769 54.896,76.769L54.896,80.769C68.077,80.769 78.708,69.919 78.708,56.602L74.708,56.602ZM35.084,56.602C35.084,45.434 43.984,36.436 54.896,36.436L54.896,32.436C41.715,32.436 31.084,43.286 31.084,56.602L35.084,56.602ZM31.084,56.602L31.084,77.139L35.084,77.139L35.084,56.602L31.084,56.602ZM54.896,76.769C50.441,76.769 46.332,75.274 43.02,72.746L40.593,75.925C44.573,78.964 49.528,80.769 54.896,80.769L54.896,76.769ZM35.443,79.813L42.713,76.119L40.9,72.553L33.631,76.247L35.443,79.813ZM31.084,77.139C31.084,79.378 33.447,80.828 35.443,79.813L33.631,76.247C34.296,75.909 35.084,76.393 35.084,77.139L31.084,77.139Z" transform="rotate(360 54.896 56.602)" fill="#FFFFFF"/>
<line x1="65.192" y1="59.53" x2="51.862" y2="59.53" stroke="#FFFFFF" stroke-width="2" stroke-miterlimit="3.999327" stroke-linecap="round"/>
<line x1="65.192" y1="49.679" x2="44.592" y2="49.679" stroke="#FFFFFF" stroke-width="2" stroke-miterlimit="3.999327" stroke-linecap="round"/>
</svg>
