<svg width="112" height="110" viewBox="0 0 112 110" fill="none" xmlns="http://www.w3.org/2000/svg" xmlns:xlink="http://www.w3.org/1999/xlink">
<path d="M73.694,52.092L50.85,35.486C50.011,34.879 48.898,34.787 47.98,35.259C47.053,35.728 46.475,36.68 46.475,37.708L46.475,70.909C46.475,71.949 47.053,72.897 47.98,73.366C48.371,73.564 48.8,73.662 49.232,73.662C49.795,73.662 50.366,73.483 50.85,73.128L73.694,56.537C74.415,56.006 74.836,55.186 74.836,54.314C74.84,53.428 74.408,52.612 73.694,52.092Z" fill="#FFFFFF"/>
<path d="M55.549,-0.759C25.163,-0.759 0.54,23.865 0.54,54.25C0.54,84.625 25.163,109.241 55.549,109.241C85.927,109.241 110.554,84.621 110.554,54.25C110.558,23.865 85.927,-0.759 55.549,-0.759ZM55.549,100.063C30.245,100.063 9.729,79.558 9.729,54.25C9.729,28.953 30.245,8.423 55.549,8.423C80.85,8.423 101.362,28.95 101.362,54.25C101.366,79.558 80.85,100.063 55.549,100.063Z" fill="#FFFFFF"/>
</svg>
