<svg width="38" height="38" viewBox="0 0 38 38" fill="none" xmlns="http://www.w3.org/2000/svg" xmlns:xlink="http://www.w3.org/1999/xlink">
<path d="M30.374,16.787C30.374,24.291 24.291,30.374 16.787,30.374L16.787,33.774C26.169,33.774 33.774,26.169 33.774,16.787L30.374,16.787ZM16.787,30.374C9.283,30.374 3.2,24.291 3.2,16.787L-0.2,16.787C-0.2,26.169 7.405,33.774 16.787,33.774L16.787,30.374ZM3.2,16.787C3.2,9.283 9.283,3.2 16.787,3.2L16.787,-0.2C7.405,-0.2 -0.2,7.405 -0.2,16.787L3.2,16.787ZM16.787,3.2C24.291,3.2 30.374,9.283 30.374,16.787L33.774,16.787C33.774,7.405 26.169,-0.2 16.787,-0.2L16.787,3.2Z" fill="#2A211F"/>
<path d="M33.298,35.702C33.962,36.366 35.038,36.366 35.702,35.702C36.366,35.038 36.366,33.962 35.702,33.298L33.298,35.702ZM30.202,27.798C29.538,27.134 28.462,27.134 27.798,27.798C27.134,28.462 27.134,29.538 27.798,30.202L30.202,27.798ZM35.702,33.298L30.202,27.798L27.798,30.202L33.298,35.702L35.702,33.298Z" fill="#2A211F"/>
</svg>
