<svg xmlns="http://www.w3.org/2000/svg" version="1.0" width="512.000000pt" height="512.000000pt" viewBox="0 0 512.000000 512.000000" preserveAspectRatio="xMidYMid meet">

<g transform="translate(0.000000,512.000000) scale(0.100000,-0.100000)" fill="#6e2f1b" stroke="none">
<path d="M627 5113 c-20 -5 -277 -370 -310 -439 -18 -40 -22 -67 -22 -144 0 -95 3 -105 53 -202 2 -5 -42 -8 -98 -8 -94 0 -103 -2 -125 -25 -25 -24 -25 -26 -25 -213 0 -117 4 -192 10 -198 8 -8 2 -27 -17 -65 -27 -52 -28 -59 -28 -209 0 -183 12 -226 84 -304 46 -49 127 -96 168 -96 12 0 25 -4 28 -10 3 -5 21 -135 40 -287 19 -153 37 -288 40 -301 3 -13 20 -29 39 -39 l34 -16 131 -426 c72 -234 131 -433 131 -441 0 -8 -23 -44 -50 -79 -32 -40 -50 -73 -50 -90 0 -20 102 -159 400 -547 l400 -519 0 -197 c0 -108 3 -204 6 -213 18 -47 -35 -45 1554 -45 1651 0 1537 -5 1560 65 10 32 14 34 38 27 15 -4 59 -7 97 -6 131 1 254 84 311 207 25 53 29 75 29 147 0 110 -32 186 -111 260 -29 27 -56 50 -61 50 -36 1 -33 20 32 187 36 93 65 179 65 192 0 12 -11 33 -25 46 l-24 25 -396 0 -395 0 -24 54 c-30 69 -93 161 -140 205 l-36 35 0 401 c0 441 -3 466 -61 576 -17 32 -58 84 -90 115 -55 51 -59 59 -53 89 l6 33 345 86 c190 48 358 93 374 101 48 25 52 100 6 129 -12 8 -170 50 -352 95 -181 45 -340 86 -351 90 -12 5 -25 22 -28 38 -4 15 -25 65 -46 110 l-38 81 189 315 c118 196 189 325 189 342 0 34 -41 75 -77 75 -19 0 -134 -64 -342 -188 l-314 -189 -66 32 c-36 18 -84 38 -106 45 -22 7 -44 16 -48 20 -5 4 -49 167 -97 361 -95 379 -99 389 -160 389 -61 0 -65 -10 -160 -389 -48 -194 -92 -357 -97 -361 -4 -4 -26 -13 -48 -20 -22 -7 -70 -27 -106 -45 l-66 -32 -314 189 c-208 124 -323 188 -342 188 -36 0 -77 -41 -77 -75 0 -17 71 -146 189 -342 l189 -315 -38 -81 c-21 -45 -42 -94 -45 -110 -4 -15 -15 -31 -24 -36 -9 -4 -167 -45 -351 -91 -184 -45 -345 -89 -357 -96 -12 -8 -26 -28 -30 -45 -7 -27 -16 -7 -81 178 l-72 208 30 235 c16 129 30 236 30 238 0 1 23 2 51 2 52 0 85 12 106 39 9 11 12 72 13 204 0 186 0 188 -25 212 -22 23 -31 25 -125 25 -56 0 -100 3 -98 8 50 98 52 108 53 202 0 122 -8 139 -180 385 -143 205 -154 215 -218 198z m124 -340 c98 -140 119 -183 119 -243 0 -168 -199 -268 -333 -167 -81 61 -110 172 -67 256 27 53 180 271 190 271 5 0 45 -53 91 -117z m2110 -708 l36 -145 -77 0 -77 0 36 145 c19 80 38 145 41 145 3 0 22 -65 41 -145z m-1801 15 l0 -80 -400 0 -400 0 0 80 0 80 400 0 400 0 0 -80z m1004 -306 c70 -41 126 -78 126 -82 0 -8 -92 -102 -101 -102 -5 0 -117 181 -156 253 -8 14 7 6 131 -69z m1643 69 c-39 -72 -151 -253 -156 -253 -14 0 -104 100 -97 107 11 12 240 151 249 152 5 1 6 -2 4 -6z m-3239 -30 c60 -44 67 -65 70 -198 3 -101 0 -130 -14 -160 -38 -80 -135 -115 -211 -76 -72 36 -87 69 -91 195 -2 59 -1 123 2 142 8 41 50 92 91 110 40 19 120 12 153 -13z m417 -5 c-5 -32 -135 -1071 -135 -1082 0 -3 -40 -6 -90 -6 -49 0 -90 3 -90 8 0 4 -14 113 -30 242 -16 129 -30 240 -30 246 0 6 22 25 49 42 57 37 105 104 126 176 29 96 19 296 -20 389 -7 16 2 17 109 17 l117 0 -6 -32z m2160 -78 c222 -70 393 -215 490 -415 65 -133 79 -197 79 -350 0 -105 -4 -145 -22 -209 -43 -151 -49 -148 -55 25 -8 247 -58 370 -212 525 -78 78 -104 98 -185 137 -55 26 -128 52 -172 61 -162 33 -314 13 -468 -61 -81 -39 -107 -59 -185 -137 -154 -154 -204 -278 -214 -526 l-6 -155 -22 57 c-56 143 -67 334 -28 483 24 88 97 231 155 302 113 139 289 245 471 283 79 16 295 5 374 -20z m-315 -389 c0 -5 -9 -38 -20 -73 -36 -116 -132 -237 -245 -307 -52 -33 -181 -78 -192 -67 -4 3 1 32 11 64 56 178 181 309 359 373 57 20 87 24 87 10z m337 -42 c139 -66 241 -187 289 -341 10 -32 15 -60 12 -64 -4 -3 -33 2 -65 11 -168 48 -322 199 -373 363 -11 35 -20 69 -20 74 0 18 72 -2 157 -43z m-213 -245 c100 -157 285 -283 468 -317 l60 -11 -4 -220 c-4 -197 -7 -228 -27 -283 -84 -232 -289 -378 -531 -378 -242 0 -447 146 -531 378 -20 55 -23 86 -27 283 l-4 221 48 8 c175 26 368 151 469 304 22 33 42 61 45 61 3 0 18 -21 34 -46z m-994 -93 l0 -79 -137 35 c-75 19 -142 37 -147 41 -6 3 55 23 134 43 80 20 146 38 148 38 1 1 2 -34 2 -78z m2210 -1 c0 -3 -65 -22 -145 -41 l-145 -36 0 77 0 77 145 -36 c80 -19 145 -38 145 -41z m-2987 -344 c73 -208 123 -364 118 -370 -137 -181 -316 -406 -318 -399 -1 4 -50 162 -108 350 -58 188 -105 347 -105 353 0 6 32 10 81 10 80 0 114 10 135 38 6 9 22 100 34 204 13 104 26 185 30 181 4 -4 64 -170 133 -367z m442 186 c176 -44 332 -82 346 -86 21 -4 28 -14 33 -40 6 -32 3 -38 -53 -90 -110 -106 -151 -217 -151 -413 l0 -123 -147 106 c-82 59 -158 116 -170 128 -13 13 -59 128 -122 308 -56 158 -104 294 -108 303 -5 16 -3 16 23 2 16 -8 173 -51 349 -95z m552 -445 c23 -28 23 -32 22 -255 -1 -227 -10 -307 -37 -307 -6 0 -55 31 -108 70 l-95 69 3 191 c3 180 4 193 29 245 14 30 40 70 59 88 l33 33 35 -53 c19 -29 46 -66 59 -81z m1642 66 c58 -88 62 -114 59 -481 l-3 -332 -51 24 c-66 31 -120 85 -153 155 -25 55 -26 61 -29 296 l-3 240 41 54 c22 29 48 66 57 82 21 35 39 27 82 -38z m-2001 -586 c211 -153 398 -287 415 -298 28 -16 51 -19 177 -19 l145 0 89 -149 c49 -82 88 -153 87 -157 -2 -5 -229 -219 -505 -476 l-501 -468 -5 123 -5 122 -387 503 -387 503 236 304 c133 170 242 301 247 297 6 -3 183 -131 394 -285z m693 -27 c5 0 9 -29 9 -65 l0 -65 -111 0 c-102 0 -111 1 -104 18 35 81 47 124 52 178 l6 63 70 -64 c38 -36 73 -65 78 -65z m998 -47 c10 -26 22 -56 26 -65 7 -17 -2 -18 -104 -18 l-111 0 0 63 c0 59 2 63 33 84 17 12 52 43 77 68 l45 46 7 -65 c5 -36 16 -87 27 -113z m-761 -60 c40 -12 92 -17 172 -17 80 0 132 5 172 17 31 9 59 17 62 17 3 0 6 -19 6 -43 0 -41 -4 -46 -153 -195 l-152 -152 -88 146 c-78 130 -87 151 -87 195 0 27 3 49 6 49 3 0 31 -8 62 -17z m940 -198 c77 -18 161 -60 229 -115 63 -49 146 -170 169 -244 l17 -55 -129 -335 c-71 -185 -131 -336 -134 -336 -3 0 -31 199 -63 442 -36 272 -64 452 -73 465 -28 44 -101 42 -130 -3 -16 -24 -13 -52 55 -572 40 -301 75 -557 78 -569 l5 -23 -411 0 c-226 0 -411 2 -411 5 0 3 115 252 255 552 140 301 255 557 255 570 0 58 -84 94 -128 56 -12 -10 -141 -277 -288 -593 -147 -316 -270 -578 -274 -583 -3 -4 -199 -6 -434 -5 l-429 3 569 532 c313 292 634 597 714 677 l145 146 175 0 c119 0 195 -5 238 -15z m1188 -482 c-3 -10 -23 -62 -44 -117 l-39 -99 -74 -18 c-76 -20 -124 -46 -173 -95 -128 -129 -139 -334 -26 -476 17 -20 30 -42 30 -47 0 -8 -100 -11 -316 -11 -297 0 -316 1 -310 18 3 9 79 207 168 440 l162 422 314 0 c294 0 313 -1 308 -17z m12 -404 c156 -76 142 -302 -22 -364 -134 -51 -280 64 -262 209 16 136 160 215 284 155z" fill="#6e2f1b"/>
</g>
</svg>