<svg width="28" height="38" viewBox="0 0 28 38" fill="none" xmlns="http://www.w3.org/2000/svg" xmlns:xlink="http://www.w3.org/1999/xlink">
<path d="M13,0.378C9.421,0.383 5.99,1.807 3.459,4.337C0.929,6.868 -0.495,10.299 -0.5,13.878C-0.5,23.57 12.078,35.709 12.612,36.22C12.716,36.322 12.855,36.378 13,36.378C13.145,36.378 13.284,36.322 13.388,36.22C13.922,35.709 26.5,23.57 26.5,13.878C26.495,10.299 25.071,6.868 22.541,4.337C20.01,1.807 16.579,0.383 13,0.378ZM13,20.065C11.776,20.065 10.58,19.703 9.562,19.023C8.545,18.343 7.752,17.376 7.284,16.246C6.815,15.115 6.693,13.871 6.931,12.671C7.17,11.471 7.759,10.368 8.625,9.503C9.49,8.637 10.593,8.048 11.793,7.809C12.993,7.571 14.237,7.693 15.368,8.161C16.498,8.63 17.465,9.423 18.145,10.44C18.825,11.458 19.188,12.654 19.188,13.878C19.187,15.519 18.534,17.092 17.374,18.252C16.214,19.412 14.641,20.064 13,20.065Z" fill="#D59A3D"/>
</svg>
