<svg width="26" height="24" viewBox="0 0 26 24" fill="none" xmlns="http://www.w3.org/2000/svg" xmlns:xlink="http://www.w3.org/1999/xlink">
<path d="M1.353,0.128L23.853,0.128C24.185,0.128 24.502,0.26 24.737,0.494C24.971,0.728 25.103,1.046 25.103,1.378L25.103,21.378C25.103,21.71 24.971,22.027 24.737,22.262C24.502,22.496 24.185,22.628 23.853,22.628L1.353,22.628C1.022,22.628 0.704,22.496 0.469,22.262C0.235,22.027 0.103,21.71 0.103,21.378L0.103,1.378C0.103,1.046 0.235,0.728 0.469,0.494C0.704,0.26 1.022,0.128 1.353,0.128L1.353,0.128ZM22.603,5.425L12.693,14.3L2.603,5.398L2.603,20.128L22.603,20.128L22.603,5.425ZM3.242,2.628L12.679,10.955L21.981,2.628L3.242,2.628Z" fill="#D59A3D"/>
</svg>
