<svg width="26" height="22" viewBox="0 0 26 22" fill="none" xmlns="http://www.w3.org/2000/svg" xmlns:xlink="http://www.w3.org/1999/xlink">
<path d="M24.702,3.448C23.748,3.87 22.736,4.147 21.7,4.27C22.792,3.617 23.609,2.589 24,1.378C22.975,1.988 21.851,2.415 20.68,2.646C19.893,1.805 18.85,1.246 17.713,1.058C16.577,0.87 15.41,1.063 14.394,1.607C13.378,2.151 12.57,3.015 12.096,4.065C11.622,5.115 11.508,6.292 11.772,7.414C9.694,7.31 7.66,6.77 5.804,5.828C3.948,4.887 2.31,3.566 0.997,1.951C0.533,2.749 0.288,3.657 0.29,4.58C0.29,6.393 1.212,7.994 2.615,8.931C1.785,8.905 0.973,8.681 0.247,8.278L0.247,8.343C0.248,9.55 0.665,10.72 1.43,11.654C2.194,12.588 3.258,13.229 4.441,13.469C3.671,13.678 2.863,13.708 2.079,13.559C2.412,14.598 3.062,15.507 3.938,16.158C4.814,16.809 5.871,17.17 6.962,17.19C5.878,18.042 4.636,18.671 3.308,19.043C1.98,19.414 0.592,19.52 -0.776,19.355C1.613,20.892 4.395,21.708 7.236,21.705C16.852,21.705 22.111,13.739 22.111,6.83C22.111,6.605 22.105,6.378 22.095,6.155C23.118,5.415 24.002,4.499 24.704,3.449L24.702,3.448Z" fill="#D59A3D"/>
</svg>
